<svg width="20" height="20" viewBox="0 0 20 20" fill="none" xmlns="http://www.w3.org/2000/svg">
<rect width="20" height="20" fill="white"/>
<circle cx="10" cy="10" r="8.25" stroke="#3769E6" stroke-width="1.5"/>
<path d="M10 4C11.1867 4 12.3467 4.35189 13.3334 5.01118C14.3201 5.67047 15.0892 6.60754 15.5433 7.7039C15.9974 8.80026 16.1162 10.0067 15.8847 11.1705C15.6532 12.3344 15.0818 13.4035 14.2426 14.2426C13.4035 15.0818 12.3344 15.6532 11.1705 15.8847C10.0067 16.1162 8.80026 15.9974 7.7039 15.5433C6.60754 15.0892 5.67047 14.3201 5.01118 13.3334C4.35189 12.3467 4 11.1867 4 10L10 10L10 4Z" fill="#3769E6"/>
</svg>
